<?xml version="1.0" encoding="utf-8"?>
<!-- Generator: Adobe Illustrator 19.1.0, SVG Export Plug-In . SVG Version: 6.00 Build 0)  -->
<svg version="1.1" id="Capa_1" xmlns="http://www.w3.org/2000/svg" xmlns:xlink="http://www.w3.org/1999/xlink" x="0px" y="0px"
	 viewBox="-19 583.9 79.3 71.7" style="enable-background:new -19 583.9 79.3 71.7;" xml:space="preserve">
<style type="text/css">
	.st0{fill:#EFFFCD;}
</style>
<g>
	<g>
		<path class="st0" d="M57.5,635.2c-0.4-0.7-1-1-1.7-1.1c-1.3-0.3-2.6-0.6-3.9-0.5c-0.7,0-1.3,0.2-2,0.3c-0.1,0-0.2,0-0.3,0
			c0.1-0.2,0.3-0.4,0.4-0.6c0.6-0.9,0.9-2,1-3.1c0.4-3.1,0-6.2-0.5-9.3c-0.4-2.2-0.7-4.4-1.2-6.6c-0.5-2.2-1.1-4.4-1.8-6.5
			c-0.9-2.8-1.7-5.5-2.7-8.2c-0.8-2.2-1.9-4.3-2.9-6.4c-0.8-1.7-1.7-3.4-2.6-5c-0.7-1.3-1.4-2.6-2.1-3.8c0-0.1-0.1-0.2-0.2-0.3
			c0,0-0.1,0-0.1,0c-0.3,0.8-0.6,1.5-0.8,2.3c-0.8,2.9-0.7,5.8-0.1,8.8c0.7,3.9,1.4,7.8,2.1,11.7c0.5,2.8,0.9,5.6,1.7,8.3
			c0.5,1.6,0.4,3.3-0.2,4.9c-0.6,1.7-1.3,3.4-2.3,4.9c-0.3,0.4-0.8,0.8-1.2,1.2c-0.9,0.9-1.8,1.8-2.6,2.8c-0.7,0.8-1.4,1.7-2.1,2.5
			c-0.2,0.3-0.5,0.5-0.9,0.4c-1.2-0.2-2.5-0.4-3.7-0.6c-1.7-0.4-3.3-0.7-4.9-1.2c-4.2-1.3-8.4-2.5-12.6-3.9
			c-1.3-0.4-2.4-1.2-3.6-1.8c-0.1-0.1-0.3-0.1-0.4-0.2c-0.1,0.7,0.2,1.2,0.5,1.7c16.3,6,21.6,9.8-4.7,12.9c-1.6,0.2-1.4,1-1.6,1.2
			c0.3,0,0.6,0,0.9-0.1c2.2-0.3,4.4-0.7,6.5-1c2.3-0.3,4.6-0.4,6.9-0.6c1.4-0.1,2.8-0.4,4.2-0.3c1.8,0.1,3.5,0.4,5.3,0.7
			c0.6,0.1,1.2,0.3,1.9,0.4c0.5,0.1,0.6,0.3,0.5,0.8c-0.6,1.7-1.4,3.3-2.5,4.7c-0.4,0.5-1,0.8-1.6,1c-1.8,0.6-3.6,1.1-5.5,1.5
			c-4.3,1-8.7,2.1-13.1,3c-3.9,0.8-7.8,1.5-11.6,2.3c-1.5,0.3-3,0.2-4.4,0.3c-1.6,0.1-3.2,0.2-4.8,0.3c-0.4,0-0.7,0-1.1,0
			c0,0.1,0,0.1-0.1,0.2c0.6,0.3,1.2,0.7,1.9,0.9c1.9,0.8,4,1.1,6,1.3c5.4,0.5,10.7,0.6,16.1,0.5c4.4-0.1,8.7-0.4,13-1
			c3-0.4,5.9-1,8.9-1.4c2.7-0.4,5.4-0.8,8.1-1.4c2.1-0.5,4-1.5,5.8-2.7c0.5-0.3,1-0.7,1.4-1c0.6-0.4,1-1,1.1-1.8
			c0-0.3,0.2-0.4,0.4-0.4c0.7,0,1.3-0.1,2-0.1c0.2,0,0.4,0,0.5-0.1c4.7-0.5,9.2-3,11.6-7.1c0.5-0.5,1.2-0.8,1.8-1.2
			c0.2-0.1,0.4-0.3,0.7-0.5c-0.5-0.5-1-0.9-1.7-1C58.2,635.9,57.8,635.7,57.5,635.2z"/>
	</g>
</g>
</svg>
